<svg width="50" height="50" viewBox="0 0 50 50" fill="none" xmlns="http://www.w3.org/2000/svg">
<rect width="50" height="50" rx="2.5" fill="black"/>
<path d="M14.032 33.5L6.784 16.7H10.984L17.32 31.58H14.848L21.28 16.7H25.144L17.872 33.5H14.032ZM34.4712 33.788C33.1432 33.788 31.9192 33.58 30.7992 33.164C29.6952 32.732 28.7272 32.124 27.8952 31.34C27.0792 30.556 26.4392 29.636 25.9752 28.58C25.5272 27.524 25.3032 26.364 25.3032 25.1C25.3032 23.836 25.5272 22.676 25.9752 21.62C26.4392 20.564 27.0872 19.644 27.9192 18.86C28.7512 18.076 29.7272 17.476 30.8472 17.06C31.9672 16.628 33.1992 16.412 34.5432 16.412C36.0312 16.412 37.3672 16.66 38.5512 17.156C39.7512 17.652 40.7592 18.372 41.5752 19.316L39.0792 21.62C38.4712 20.98 37.8072 20.508 37.0872 20.204C36.3672 19.884 35.5832 19.724 34.7352 19.724C33.9192 19.724 33.1752 19.852 32.5032 20.108C31.8312 20.364 31.2472 20.732 30.7512 21.212C30.2712 21.692 29.8952 22.26 29.6232 22.916C29.3672 23.572 29.2392 24.3 29.2392 25.1C29.2392 25.884 29.3672 26.604 29.6232 27.26C29.8952 27.916 30.2712 28.492 30.7512 28.988C31.2472 29.468 31.8232 29.836 32.4792 30.092C33.1512 30.348 33.8872 30.476 34.6872 30.476C35.4552 30.476 36.1992 30.356 36.9192 30.116C37.6552 29.86 38.3672 29.436 39.0552 28.844L41.2632 31.652C40.3512 32.34 39.2872 32.868 38.0712 33.236C36.8712 33.604 35.6712 33.788 34.4712 33.788ZM37.7112 31.148V24.836H41.2632V31.652L37.7112 31.148Z" fill="white"/>
</svg>
